<svg width="23" height="22" viewBox="0 0 23 22" fill="none" xmlns="http://www.w3.org/2000/svg">
<path id="Vector" d="M14.2961 10.9985V20.6283C14.3503 20.9949 14.2148 21.386 13.9034 21.6426C13.7781 21.7559 13.6293 21.8458 13.4654 21.9071C13.3016 21.9684 13.126 22 12.9486 22C12.7713 22 12.5957 21.9684 12.4318 21.9071C12.268 21.8458 12.1192 21.7559 11.9939 21.6426L9.27195 19.1863C9.12425 19.056 9.01195 18.8966 8.94382 18.7207C8.87569 18.5447 8.85359 18.3569 8.87923 18.172V10.9985H8.8386L1.03833 1.97973C0.818413 1.72497 0.719184 1.40201 0.762321 1.08143C0.805458 0.760855 0.987455 0.468715 1.26854 0.268852C1.52584 0.0977645 1.81023 0 2.10816 0H21.0672C21.3651 0 21.6495 0.0977645 21.9068 0.268852C22.1879 0.468715 22.3699 0.760855 22.413 1.08143C22.4561 1.40201 22.3569 1.72497 22.137 1.97973L14.3367 10.9985H14.2961Z" fill="#3E3E3E"/>
</svg>
