<?xml version="1.0" encoding="UTF-8"?>
<svg id="Capa_1" data-name="Capa 1" xmlns="http://www.w3.org/2000/svg" viewBox="0 0 27.09 39.03">
  <defs>
    <style>
      .cls-1 {
        fill: #e03030;
        stroke: #fff;
      }
    </style>
  </defs>
  <path class="cls-1" d="m13.54,37.45l-.37.33.37.42.37-.42-.37-.33Zm0,0q.37.33.37.33h0s0,0,0,0h0s.03-.04.03-.04c.02-.03.06-.07.11-.12.09-.11.23-.26.4-.47.34-.4.84-.99,1.43-1.73,1.18-1.47,2.75-3.53,4.32-5.88,1.57-2.36,3.15-5.02,4.34-7.7,1.18-2.67,2-5.4,2-7.87C26.54,6.71,20.74.83,13.54.83S.54,6.71.54,13.97c0,2.47.81,5.2,2,7.87,1.19,2.68,2.77,5.34,4.34,7.7,1.57,2.36,3.14,4.41,4.32,5.88.59.73,1.08,1.32,1.43,1.73.17.2.31.36.4.47.05.05.08.09.11.12l.03.03h0s0,.01,0,.01h0s0,0,.37-.33Zm0-19.46c-1.05,0-2.06-.42-2.8-1.17-.74-.75-1.16-1.77-1.16-2.84s.42-2.09,1.16-2.84c.74-.75,1.75-1.17,2.8-1.17s2.06.42,2.8,1.17c.74.75,1.16,1.77,1.16,2.84s-.42,2.09-1.16,2.84c-.74.75-1.75,1.17-2.8,1.17Z"/>
</svg>